<?xml version="1.0" encoding="utf-8" standalone="no"?>
<!DOCTYPE svg PUBLIC "-//W3C//DTD SVG 1.1//EN"
  "http://www.w3.org/Graphics/SVG/1.1/DTD/svg11.dtd">
<svg xmlns:xlink="http://www.w3.org/1999/xlink" width="864pt" height="360pt" viewBox="0 0 864 360" xmlns="http://www.w3.org/2000/svg" version="1.1">
 <metadata>
  <rdf:RDF xmlns:dc="http://purl.org/dc/elements/1.1/" xmlns:cc="http://creativecommons.org/ns#" xmlns:rdf="http://www.w3.org/1999/02/22-rdf-syntax-ns#">
   <cc:Work>
    <dc:type rdf:resource="http://purl.org/dc/dcmitype/StillImage"/>
    <dc:date>2023-10-31T08:48:16.412560</dc:date>
    <dc:format>image/svg+xml</dc:format>
    <dc:creator>
     <cc:Agent>
      <dc:title>Matplotlib v3.8.0, https://matplotlib.org/</dc:title>
     </cc:Agent>
    </dc:creator>
   </cc:Work>
  </rdf:RDF>
 </metadata>
 <defs>
  <style type="text/css">*{stroke-linejoin: round; stroke-linecap: butt}</style>
 </defs>
 <g id="figure_1">
  <g id="patch_1">
   <path d="M 0 360 
L 864 360 
L 864 0 
L 0 0 
L 0 360 
z
" style="fill: none; opacity: 0"/>
  </g>
  <g id="axes_1">
   <g id="patch_2">
    <path d="M 108 320.4 
L 777.6 320.4 
L 777.6 43.2 
L 108 43.2 
L 108 320.4 
z
" style="fill: none; opacity: 0"/>
   </g>
   <g id="matplotlib.axis_1">
    <g id="xtick_1">
     <g id="line2d_1">
      <path d="M 121.54767 320.4 
L 121.54767 43.2 
" clip-path="url(#p09c0b2cd5d)" style="fill: none; stroke-dasharray: 5.12,1.28,0.8,1.28; stroke-dashoffset: 0; stroke: #b0b0b0; stroke-width: 0.8"/>
     </g>
     <g id="line2d_2">
      <defs>
       <path id="m0a58d48c34" d="M 0 0 
L 0 3.5 
" style="stroke: #a9a9a9; stroke-width: 0.8"/>
      </defs>
      <g>
       <use xlink:href="#m0a58d48c34" x="121.54767" y="320.4" style="fill: #a9a9a9; stroke: #a9a9a9; stroke-width: 0.8"/>
      </g>
     </g>
     <g id="text_1">
      <!-- 2021-07 -->
      <g style="fill: #a9a9a9" transform="translate(100.656263 334.998438) scale(0.1 -0.1)">
       <defs>
        <path id="DejaVuSans-32" d="M 1228 531 
L 3431 531 
L 3431 0 
L 469 0 
L 469 531 
Q 828 903 1448 1529 
Q 2069 2156 2228 2338 
Q 2531 2678 2651 2914 
Q 2772 3150 2772 3378 
Q 2772 3750 2511 3984 
Q 2250 4219 1831 4219 
Q 1534 4219 1204 4116 
Q 875 4013 500 3803 
L 500 4441 
Q 881 4594 1212 4672 
Q 1544 4750 1819 4750 
Q 2544 4750 2975 4387 
Q 3406 4025 3406 3419 
Q 3406 3131 3298 2873 
Q 3191 2616 2906 2266 
Q 2828 2175 2409 1742 
Q 1991 1309 1228 531 
z
" transform="scale(0.015625)"/>
        <path id="DejaVuSans-30" d="M 2034 4250 
Q 1547 4250 1301 3770 
Q 1056 3291 1056 2328 
Q 1056 1369 1301 889 
Q 1547 409 2034 409 
Q 2525 409 2770 889 
Q 3016 1369 3016 2328 
Q 3016 3291 2770 3770 
Q 2525 4250 2034 4250 
z
M 2034 4750 
Q 2819 4750 3233 4129 
Q 3647 3509 3647 2328 
Q 3647 1150 3233 529 
Q 2819 -91 2034 -91 
Q 1250 -91 836 529 
Q 422 1150 422 2328 
Q 422 3509 836 4129 
Q 1250 4750 2034 4750 
z
" transform="scale(0.015625)"/>
        <path id="DejaVuSans-31" d="M 794 531 
L 1825 531 
L 1825 4091 
L 703 3866 
L 703 4441 
L 1819 4666 
L 2450 4666 
L 2450 531 
L 3481 531 
L 3481 0 
L 794 0 
L 794 531 
z
" transform="scale(0.015625)"/>
        <path id="DejaVuSans-2d" d="M 313 2009 
L 1997 2009 
L 1997 1497 
L 313 1497 
L 313 2009 
z
" transform="scale(0.015625)"/>
        <path id="DejaVuSans-37" d="M 525 4666 
L 3525 4666 
L 3525 4397 
L 1831 0 
L 1172 0 
L 2766 4134 
L 525 4134 
L 525 4666 
z
" transform="scale(0.015625)"/>
       </defs>
       <use xlink:href="#DejaVuSans-32"/>
       <use xlink:href="#DejaVuSans-30" x="63.623047"/>
       <use xlink:href="#DejaVuSans-32" x="127.246094"/>
       <use xlink:href="#DejaVuSans-31" x="190.869141"/>
       <use xlink:href="#DejaVuSans-2d" x="254.492188"/>
       <use xlink:href="#DejaVuSans-30" x="290.576172"/>
       <use xlink:href="#DejaVuSans-37" x="354.199219"/>
      </g>
     </g>
    </g>
    <g id="xtick_2">
     <g id="line2d_3">
      <path d="M 189.102445 320.4 
L 189.102445 43.2 
" clip-path="url(#p09c0b2cd5d)" style="fill: none; stroke-dasharray: 5.12,1.28,0.8,1.28; stroke-dashoffset: 0; stroke: #b0b0b0; stroke-width: 0.8"/>
     </g>
     <g id="line2d_4">
      <g>
       <use xlink:href="#m0a58d48c34" x="189.102445" y="320.4" style="fill: #a9a9a9; stroke: #a9a9a9; stroke-width: 0.8"/>
      </g>
     </g>
     <g id="text_2">
      <!-- 2021-10 -->
      <g style="fill: #a9a9a9" transform="translate(168.211039 334.998438) scale(0.1 -0.1)">
       <use xlink:href="#DejaVuSans-32"/>
       <use xlink:href="#DejaVuSans-30" x="63.623047"/>
       <use xlink:href="#DejaVuSans-32" x="127.246094"/>
       <use xlink:href="#DejaVuSans-31" x="190.869141"/>
       <use xlink:href="#DejaVuSans-2d" x="254.492188"/>
       <use xlink:href="#DejaVuSans-31" x="290.576172"/>
       <use xlink:href="#DejaVuSans-30" x="354.199219"/>
      </g>
     </g>
    </g>
    <g id="xtick_3">
     <g id="line2d_5">
      <path d="M 256.657221 320.4 
L 256.657221 43.2 
" clip-path="url(#p09c0b2cd5d)" style="fill: none; stroke-dasharray: 5.12,1.28,0.8,1.28; stroke-dashoffset: 0; stroke: #b0b0b0; stroke-width: 0.8"/>
     </g>
     <g id="line2d_6">
      <g>
       <use xlink:href="#m0a58d48c34" x="256.657221" y="320.4" style="fill: #a9a9a9; stroke: #a9a9a9; stroke-width: 0.8"/>
      </g>
     </g>
     <g id="text_3">
      <!-- 2022-01 -->
      <g style="fill: #a9a9a9" transform="translate(235.765815 334.998438) scale(0.1 -0.1)">
       <use xlink:href="#DejaVuSans-32"/>
       <use xlink:href="#DejaVuSans-30" x="63.623047"/>
       <use xlink:href="#DejaVuSans-32" x="127.246094"/>
       <use xlink:href="#DejaVuSans-32" x="190.869141"/>
       <use xlink:href="#DejaVuSans-2d" x="254.492188"/>
       <use xlink:href="#DejaVuSans-30" x="290.576172"/>
       <use xlink:href="#DejaVuSans-31" x="354.199219"/>
      </g>
     </g>
    </g>
    <g id="xtick_4">
     <g id="line2d_7">
      <path d="M 322.743415 320.4 
L 322.743415 43.2 
" clip-path="url(#p09c0b2cd5d)" style="fill: none; stroke-dasharray: 5.12,1.28,0.8,1.28; stroke-dashoffset: 0; stroke: #b0b0b0; stroke-width: 0.8"/>
     </g>
     <g id="line2d_8">
      <g>
       <use xlink:href="#m0a58d48c34" x="322.743415" y="320.4" style="fill: #a9a9a9; stroke: #a9a9a9; stroke-width: 0.8"/>
      </g>
     </g>
     <g id="text_4">
      <!-- 2022-04 -->
      <g style="fill: #a9a9a9" transform="translate(301.852009 334.998438) scale(0.1 -0.1)">
       <defs>
        <path id="DejaVuSans-34" d="M 2419 4116 
L 825 1625 
L 2419 1625 
L 2419 4116 
z
M 2253 4666 
L 3047 4666 
L 3047 1625 
L 3713 1625 
L 3713 1100 
L 3047 1100 
L 3047 0 
L 2419 0 
L 2419 1100 
L 313 1100 
L 313 1709 
L 2253 4666 
z
" transform="scale(0.015625)"/>
       </defs>
       <use xlink:href="#DejaVuSans-32"/>
       <use xlink:href="#DejaVuSans-30" x="63.623047"/>
       <use xlink:href="#DejaVuSans-32" x="127.246094"/>
       <use xlink:href="#DejaVuSans-32" x="190.869141"/>
       <use xlink:href="#DejaVuSans-2d" x="254.492188"/>
       <use xlink:href="#DejaVuSans-30" x="290.576172"/>
       <use xlink:href="#DejaVuSans-34" x="354.199219"/>
      </g>
     </g>
    </g>
    <g id="xtick_5">
     <g id="line2d_9">
      <path d="M 389.5639 320.4 
L 389.5639 43.2 
" clip-path="url(#p09c0b2cd5d)" style="fill: none; stroke-dasharray: 5.12,1.28,0.8,1.28; stroke-dashoffset: 0; stroke: #b0b0b0; stroke-width: 0.8"/>
     </g>
     <g id="line2d_10">
      <g>
       <use xlink:href="#m0a58d48c34" x="389.5639" y="320.4" style="fill: #a9a9a9; stroke: #a9a9a9; stroke-width: 0.8"/>
      </g>
     </g>
     <g id="text_5">
      <!-- 2022-07 -->
      <g style="fill: #a9a9a9" transform="translate(368.672493 334.998438) scale(0.1 -0.1)">
       <use xlink:href="#DejaVuSans-32"/>
       <use xlink:href="#DejaVuSans-30" x="63.623047"/>
       <use xlink:href="#DejaVuSans-32" x="127.246094"/>
       <use xlink:href="#DejaVuSans-32" x="190.869141"/>
       <use xlink:href="#DejaVuSans-2d" x="254.492188"/>
       <use xlink:href="#DejaVuSans-30" x="290.576172"/>
       <use xlink:href="#DejaVuSans-37" x="354.199219"/>
      </g>
     </g>
    </g>
    <g id="xtick_6">
     <g id="line2d_11">
      <path d="M 457.118675 320.4 
L 457.118675 43.2 
" clip-path="url(#p09c0b2cd5d)" style="fill: none; stroke-dasharray: 5.12,1.28,0.8,1.28; stroke-dashoffset: 0; stroke: #b0b0b0; stroke-width: 0.8"/>
     </g>
     <g id="line2d_12">
      <g>
       <use xlink:href="#m0a58d48c34" x="457.118675" y="320.4" style="fill: #a9a9a9; stroke: #a9a9a9; stroke-width: 0.8"/>
      </g>
     </g>
     <g id="text_6">
      <!-- 2022-10 -->
      <g style="fill: #a9a9a9" transform="translate(436.227269 334.998438) scale(0.1 -0.1)">
       <use xlink:href="#DejaVuSans-32"/>
       <use xlink:href="#DejaVuSans-30" x="63.623047"/>
       <use xlink:href="#DejaVuSans-32" x="127.246094"/>
       <use xlink:href="#DejaVuSans-32" x="190.869141"/>
       <use xlink:href="#DejaVuSans-2d" x="254.492188"/>
       <use xlink:href="#DejaVuSans-31" x="290.576172"/>
       <use xlink:href="#DejaVuSans-30" x="354.199219"/>
      </g>
     </g>
    </g>
    <g id="xtick_7">
     <g id="line2d_13">
      <path d="M 524.673451 320.4 
L 524.673451 43.2 
" clip-path="url(#p09c0b2cd5d)" style="fill: none; stroke-dasharray: 5.12,1.28,0.8,1.28; stroke-dashoffset: 0; stroke: #b0b0b0; stroke-width: 0.8"/>
     </g>
     <g id="line2d_14">
      <g>
       <use xlink:href="#m0a58d48c34" x="524.673451" y="320.4" style="fill: #a9a9a9; stroke: #a9a9a9; stroke-width: 0.8"/>
      </g>
     </g>
     <g id="text_7">
      <!-- 2023-01 -->
      <g style="fill: #a9a9a9" transform="translate(503.782045 334.998438) scale(0.1 -0.1)">
       <defs>
        <path id="DejaVuSans-33" d="M 2597 2516 
Q 3050 2419 3304 2112 
Q 3559 1806 3559 1356 
Q 3559 666 3084 287 
Q 2609 -91 1734 -91 
Q 1441 -91 1130 -33 
Q 819 25 488 141 
L 488 750 
Q 750 597 1062 519 
Q 1375 441 1716 441 
Q 2309 441 2620 675 
Q 2931 909 2931 1356 
Q 2931 1769 2642 2001 
Q 2353 2234 1838 2234 
L 1294 2234 
L 1294 2753 
L 1863 2753 
Q 2328 2753 2575 2939 
Q 2822 3125 2822 3475 
Q 2822 3834 2567 4026 
Q 2313 4219 1838 4219 
Q 1578 4219 1281 4162 
Q 984 4106 628 3988 
L 628 4550 
Q 988 4650 1302 4700 
Q 1616 4750 1894 4750 
Q 2613 4750 3031 4423 
Q 3450 4097 3450 3541 
Q 3450 3153 3228 2886 
Q 3006 2619 2597 2516 
z
" transform="scale(0.015625)"/>
       </defs>
       <use xlink:href="#DejaVuSans-32"/>
       <use xlink:href="#DejaVuSans-30" x="63.623047"/>
       <use xlink:href="#DejaVuSans-32" x="127.246094"/>
       <use xlink:href="#DejaVuSans-33" x="190.869141"/>
       <use xlink:href="#DejaVuSans-2d" x="254.492188"/>
       <use xlink:href="#DejaVuSans-30" x="290.576172"/>
       <use xlink:href="#DejaVuSans-31" x="354.199219"/>
      </g>
     </g>
    </g>
    <g id="xtick_8">
     <g id="line2d_15">
      <path d="M 590.759645 320.4 
L 590.759645 43.2 
" clip-path="url(#p09c0b2cd5d)" style="fill: none; stroke-dasharray: 5.12,1.28,0.8,1.28; stroke-dashoffset: 0; stroke: #b0b0b0; stroke-width: 0.8"/>
     </g>
     <g id="line2d_16">
      <g>
       <use xlink:href="#m0a58d48c34" x="590.759645" y="320.4" style="fill: #a9a9a9; stroke: #a9a9a9; stroke-width: 0.8"/>
      </g>
     </g>
     <g id="text_8">
      <!-- 2023-04 -->
      <g style="fill: #a9a9a9" transform="translate(569.868238 334.998438) scale(0.1 -0.1)">
       <use xlink:href="#DejaVuSans-32"/>
       <use xlink:href="#DejaVuSans-30" x="63.623047"/>
       <use xlink:href="#DejaVuSans-32" x="127.246094"/>
       <use xlink:href="#DejaVuSans-33" x="190.869141"/>
       <use xlink:href="#DejaVuSans-2d" x="254.492188"/>
       <use xlink:href="#DejaVuSans-30" x="290.576172"/>
       <use xlink:href="#DejaVuSans-34" x="354.199219"/>
      </g>
     </g>
    </g>
    <g id="xtick_9">
     <g id="line2d_17">
      <path d="M 657.580129 320.4 
L 657.580129 43.2 
" clip-path="url(#p09c0b2cd5d)" style="fill: none; stroke-dasharray: 5.12,1.28,0.8,1.28; stroke-dashoffset: 0; stroke: #b0b0b0; stroke-width: 0.8"/>
     </g>
     <g id="line2d_18">
      <g>
       <use xlink:href="#m0a58d48c34" x="657.580129" y="320.4" style="fill: #a9a9a9; stroke: #a9a9a9; stroke-width: 0.8"/>
      </g>
     </g>
     <g id="text_9">
      <!-- 2023-07 -->
      <g style="fill: #a9a9a9" transform="translate(636.688723 334.998438) scale(0.1 -0.1)">
       <use xlink:href="#DejaVuSans-32"/>
       <use xlink:href="#DejaVuSans-30" x="63.623047"/>
       <use xlink:href="#DejaVuSans-32" x="127.246094"/>
       <use xlink:href="#DejaVuSans-33" x="190.869141"/>
       <use xlink:href="#DejaVuSans-2d" x="254.492188"/>
       <use xlink:href="#DejaVuSans-30" x="290.576172"/>
       <use xlink:href="#DejaVuSans-37" x="354.199219"/>
      </g>
     </g>
    </g>
    <g id="xtick_10">
     <g id="line2d_19">
      <path d="M 725.134905 320.4 
L 725.134905 43.2 
" clip-path="url(#p09c0b2cd5d)" style="fill: none; stroke-dasharray: 5.12,1.28,0.8,1.28; stroke-dashoffset: 0; stroke: #b0b0b0; stroke-width: 0.8"/>
     </g>
     <g id="line2d_20">
      <g>
       <use xlink:href="#m0a58d48c34" x="725.134905" y="320.4" style="fill: #a9a9a9; stroke: #a9a9a9; stroke-width: 0.8"/>
      </g>
     </g>
     <g id="text_10">
      <!-- 2023-10 -->
      <g style="fill: #a9a9a9" transform="translate(704.243499 334.998438) scale(0.1 -0.1)">
       <use xlink:href="#DejaVuSans-32"/>
       <use xlink:href="#DejaVuSans-30" x="63.623047"/>
       <use xlink:href="#DejaVuSans-32" x="127.246094"/>
       <use xlink:href="#DejaVuSans-33" x="190.869141"/>
       <use xlink:href="#DejaVuSans-2d" x="254.492188"/>
       <use xlink:href="#DejaVuSans-31" x="290.576172"/>
       <use xlink:href="#DejaVuSans-30" x="354.199219"/>
      </g>
     </g>
    </g>
   </g>
   <g id="matplotlib.axis_2">
    <g id="ytick_1">
     <g id="line2d_21">
      <path d="M 108 307.850079 
L 777.6 307.850079 
" clip-path="url(#p09c0b2cd5d)" style="fill: none; stroke-dasharray: 5.12,1.28,0.8,1.28; stroke-dashoffset: 0; stroke: #b0b0b0; stroke-width: 0.8"/>
     </g>
     <g id="line2d_22">
      <defs>
       <path id="m1ebe93bd67" d="M 0 0 
L -3.5 0 
" style="stroke: #a9a9a9; stroke-width: 0.8"/>
      </defs>
      <g>
       <use xlink:href="#m1ebe93bd67" x="108" y="307.850079" style="fill: #a9a9a9; stroke: #a9a9a9; stroke-width: 0.8"/>
      </g>
     </g>
     <g id="text_11">
      <!-- 0 -->
      <g style="fill: #a9a9a9" transform="translate(94.6375 311.649298) scale(0.1 -0.1)">
       <use xlink:href="#DejaVuSans-30"/>
      </g>
     </g>
    </g>
    <g id="ytick_2">
     <g id="line2d_23">
      <path d="M 108 277.802385 
L 777.6 277.802385 
" clip-path="url(#p09c0b2cd5d)" style="fill: none; stroke-dasharray: 5.12,1.28,0.8,1.28; stroke-dashoffset: 0; stroke: #b0b0b0; stroke-width: 0.8"/>
     </g>
     <g id="line2d_24">
      <g>
       <use xlink:href="#m1ebe93bd67" x="108" y="277.802385" style="fill: #a9a9a9; stroke: #a9a9a9; stroke-width: 0.8"/>
      </g>
     </g>
     <g id="text_12">
      <!-- 600 -->
      <g style="fill: #a9a9a9" transform="translate(81.9125 281.601603) scale(0.1 -0.1)">
       <defs>
        <path id="DejaVuSans-36" d="M 2113 2584 
Q 1688 2584 1439 2293 
Q 1191 2003 1191 1497 
Q 1191 994 1439 701 
Q 1688 409 2113 409 
Q 2538 409 2786 701 
Q 3034 994 3034 1497 
Q 3034 2003 2786 2293 
Q 2538 2584 2113 2584 
z
M 3366 4563 
L 3366 3988 
Q 3128 4100 2886 4159 
Q 2644 4219 2406 4219 
Q 1781 4219 1451 3797 
Q 1122 3375 1075 2522 
Q 1259 2794 1537 2939 
Q 1816 3084 2150 3084 
Q 2853 3084 3261 2657 
Q 3669 2231 3669 1497 
Q 3669 778 3244 343 
Q 2819 -91 2113 -91 
Q 1303 -91 875 529 
Q 447 1150 447 2328 
Q 447 3434 972 4092 
Q 1497 4750 2381 4750 
Q 2619 4750 2861 4703 
Q 3103 4656 3366 4563 
z
" transform="scale(0.015625)"/>
       </defs>
       <use xlink:href="#DejaVuSans-36"/>
       <use xlink:href="#DejaVuSans-30" x="63.623047"/>
       <use xlink:href="#DejaVuSans-30" x="127.246094"/>
      </g>
     </g>
    </g>
    <g id="ytick_3">
     <g id="line2d_25">
      <path d="M 108 247.75469 
L 777.6 247.75469 
" clip-path="url(#p09c0b2cd5d)" style="fill: none; stroke-dasharray: 5.12,1.28,0.8,1.28; stroke-dashoffset: 0; stroke: #b0b0b0; stroke-width: 0.8"/>
     </g>
     <g id="line2d_26">
      <g>
       <use xlink:href="#m1ebe93bd67" x="108" y="247.75469" style="fill: #a9a9a9; stroke: #a9a9a9; stroke-width: 0.8"/>
      </g>
     </g>
     <g id="text_13">
      <!-- 1200 -->
      <g style="fill: #a9a9a9" transform="translate(75.55 251.553909) scale(0.1 -0.1)">
       <use xlink:href="#DejaVuSans-31"/>
       <use xlink:href="#DejaVuSans-32" x="63.623047"/>
       <use xlink:href="#DejaVuSans-30" x="127.246094"/>
       <use xlink:href="#DejaVuSans-30" x="190.869141"/>
      </g>
     </g>
    </g>
    <g id="ytick_4">
     <g id="line2d_27">
      <path d="M 108 217.706995 
L 777.6 217.706995 
" clip-path="url(#p09c0b2cd5d)" style="fill: none; stroke-dasharray: 5.12,1.28,0.8,1.28; stroke-dashoffset: 0; stroke: #b0b0b0; stroke-width: 0.8"/>
     </g>
     <g id="line2d_28">
      <g>
       <use xlink:href="#m1ebe93bd67" x="108" y="217.706995" style="fill: #a9a9a9; stroke: #a9a9a9; stroke-width: 0.8"/>
      </g>
     </g>
     <g id="text_14">
      <!-- 1800 -->
      <g style="fill: #a9a9a9" transform="translate(75.55 221.506214) scale(0.1 -0.1)">
       <defs>
        <path id="DejaVuSans-38" d="M 2034 2216 
Q 1584 2216 1326 1975 
Q 1069 1734 1069 1313 
Q 1069 891 1326 650 
Q 1584 409 2034 409 
Q 2484 409 2743 651 
Q 3003 894 3003 1313 
Q 3003 1734 2745 1975 
Q 2488 2216 2034 2216 
z
M 1403 2484 
Q 997 2584 770 2862 
Q 544 3141 544 3541 
Q 544 4100 942 4425 
Q 1341 4750 2034 4750 
Q 2731 4750 3128 4425 
Q 3525 4100 3525 3541 
Q 3525 3141 3298 2862 
Q 3072 2584 2669 2484 
Q 3125 2378 3379 2068 
Q 3634 1759 3634 1313 
Q 3634 634 3220 271 
Q 2806 -91 2034 -91 
Q 1263 -91 848 271 
Q 434 634 434 1313 
Q 434 1759 690 2068 
Q 947 2378 1403 2484 
z
M 1172 3481 
Q 1172 3119 1398 2916 
Q 1625 2713 2034 2713 
Q 2441 2713 2670 2916 
Q 2900 3119 2900 3481 
Q 2900 3844 2670 4047 
Q 2441 4250 2034 4250 
Q 1625 4250 1398 4047 
Q 1172 3844 1172 3481 
z
" transform="scale(0.015625)"/>
       </defs>
       <use xlink:href="#DejaVuSans-31"/>
       <use xlink:href="#DejaVuSans-38" x="63.623047"/>
       <use xlink:href="#DejaVuSans-30" x="127.246094"/>
       <use xlink:href="#DejaVuSans-30" x="190.869141"/>
      </g>
     </g>
    </g>
    <g id="ytick_5">
     <g id="line2d_29">
      <path d="M 108 187.6593 
L 777.6 187.6593 
" clip-path="url(#p09c0b2cd5d)" style="fill: none; stroke-dasharray: 5.12,1.28,0.8,1.28; stroke-dashoffset: 0; stroke: #b0b0b0; stroke-width: 0.8"/>
     </g>
     <g id="line2d_30">
      <g>
       <use xlink:href="#m1ebe93bd67" x="108" y="187.6593" style="fill: #a9a9a9; stroke: #a9a9a9; stroke-width: 0.8"/>
      </g>
     </g>
     <g id="text_15">
      <!-- 2400 -->
      <g style="fill: #a9a9a9" transform="translate(75.55 191.458519) scale(0.1 -0.1)">
       <use xlink:href="#DejaVuSans-32"/>
       <use xlink:href="#DejaVuSans-34" x="63.623047"/>
       <use xlink:href="#DejaVuSans-30" x="127.246094"/>
       <use xlink:href="#DejaVuSans-30" x="190.869141"/>
      </g>
     </g>
    </g>
    <g id="ytick_6">
     <g id="line2d_31">
      <path d="M 108 157.611606 
L 777.6 157.611606 
" clip-path="url(#p09c0b2cd5d)" style="fill: none; stroke-dasharray: 5.12,1.28,0.8,1.28; stroke-dashoffset: 0; stroke: #b0b0b0; stroke-width: 0.8"/>
     </g>
     <g id="line2d_32">
      <g>
       <use xlink:href="#m1ebe93bd67" x="108" y="157.611606" style="fill: #a9a9a9; stroke: #a9a9a9; stroke-width: 0.8"/>
      </g>
     </g>
     <g id="text_16">
      <!-- 3000 -->
      <g style="fill: #a9a9a9" transform="translate(75.55 161.410824) scale(0.1 -0.1)">
       <use xlink:href="#DejaVuSans-33"/>
       <use xlink:href="#DejaVuSans-30" x="63.623047"/>
       <use xlink:href="#DejaVuSans-30" x="127.246094"/>
       <use xlink:href="#DejaVuSans-30" x="190.869141"/>
      </g>
     </g>
    </g>
    <g id="ytick_7">
     <g id="line2d_33">
      <path d="M 108 127.563911 
L 777.6 127.563911 
" clip-path="url(#p09c0b2cd5d)" style="fill: none; stroke-dasharray: 5.12,1.28,0.8,1.28; stroke-dashoffset: 0; stroke: #b0b0b0; stroke-width: 0.8"/>
     </g>
     <g id="line2d_34">
      <g>
       <use xlink:href="#m1ebe93bd67" x="108" y="127.563911" style="fill: #a9a9a9; stroke: #a9a9a9; stroke-width: 0.8"/>
      </g>
     </g>
     <g id="text_17">
      <!-- 3600 -->
      <g style="fill: #a9a9a9" transform="translate(75.55 131.36313) scale(0.1 -0.1)">
       <use xlink:href="#DejaVuSans-33"/>
       <use xlink:href="#DejaVuSans-36" x="63.623047"/>
       <use xlink:href="#DejaVuSans-30" x="127.246094"/>
       <use xlink:href="#DejaVuSans-30" x="190.869141"/>
      </g>
     </g>
    </g>
    <g id="ytick_8">
     <g id="line2d_35">
      <path d="M 108 97.516216 
L 777.6 97.516216 
" clip-path="url(#p09c0b2cd5d)" style="fill: none; stroke-dasharray: 5.12,1.28,0.8,1.28; stroke-dashoffset: 0; stroke: #b0b0b0; stroke-width: 0.8"/>
     </g>
     <g id="line2d_36">
      <g>
       <use xlink:href="#m1ebe93bd67" x="108" y="97.516216" style="fill: #a9a9a9; stroke: #a9a9a9; stroke-width: 0.8"/>
      </g>
     </g>
     <g id="text_18">
      <!-- 4200 -->
      <g style="fill: #a9a9a9" transform="translate(75.55 101.315435) scale(0.1 -0.1)">
       <use xlink:href="#DejaVuSans-34"/>
       <use xlink:href="#DejaVuSans-32" x="63.623047"/>
       <use xlink:href="#DejaVuSans-30" x="127.246094"/>
       <use xlink:href="#DejaVuSans-30" x="190.869141"/>
      </g>
     </g>
    </g>
    <g id="ytick_9">
     <g id="line2d_37">
      <path d="M 108 67.468521 
L 777.6 67.468521 
" clip-path="url(#p09c0b2cd5d)" style="fill: none; stroke-dasharray: 5.12,1.28,0.8,1.28; stroke-dashoffset: 0; stroke: #b0b0b0; stroke-width: 0.8"/>
     </g>
     <g id="line2d_38">
      <g>
       <use xlink:href="#m1ebe93bd67" x="108" y="67.468521" style="fill: #a9a9a9; stroke: #a9a9a9; stroke-width: 0.8"/>
      </g>
     </g>
     <g id="text_19">
      <!-- 4800 -->
      <g style="fill: #a9a9a9" transform="translate(75.55 71.26774) scale(0.1 -0.1)">
       <use xlink:href="#DejaVuSans-34"/>
       <use xlink:href="#DejaVuSans-38" x="63.623047"/>
       <use xlink:href="#DejaVuSans-30" x="127.246094"/>
       <use xlink:href="#DejaVuSans-30" x="190.869141"/>
      </g>
     </g>
    </g>
   </g>
   <g id="line2d_39">
    <path d="M 138.436364 307.699841 
L 142.84211 307.349285 
L 143.576401 307.048808 
L 145.779274 306.79841 
L 150.919311 305.8469 
L 154.590767 305.496343 
L 155.325058 305.145787 
L 156.059349 304.945469 
L 156.79364 304.044038 
L 157.527931 303.543243 
L 158.262222 301.9407 
L 158.996513 301.840541 
L 159.730804 301.289666 
L 161.199386 300.588553 
L 162.667968 299.486804 
L 163.402259 298.785692 
L 164.870841 298.084579 
L 165.605132 297.784102 
L 166.339423 297.233227 
L 169.276587 295.98124 
L 170.010878 294.829412 
L 170.745169 294.228458 
L 172.213752 293.427186 
L 179.556662 292.375517 
L 180.290953 292.02496 
L 185.43099 291.624324 
L 186.899572 291.223688 
L 188.368154 290.923211 
L 194.242483 290.172019 
L 194.976774 289.771383 
L 195.711065 289.671224 
L 196.445356 289.370747 
L 197.913938 289.12035 
L 198.648229 289.07027 
L 199.38252 288.819873 
L 202.319684 288.369157 
L 203.788266 287.968521 
L 205.991139 287.768203 
L 207.459721 287.617965 
L 208.194013 287.417647 
L 208.928304 287.367568 
L 211.131177 286.716534 
L 215.536923 286.065501 
L 216.271214 285.815103 
L 217.005505 284.813514 
L 219.208378 284.012242 
L 221.411251 283.411288 
L 222.145542 283.060731 
L 222.879833 283.010652 
L 226.551289 282.009062 
L 228.019871 281.908903 
L 228.754162 281.808744 
L 230.957035 281.157711 
L 233.894199 280.456598 
L 234.62849 280.156121 
L 235.362781 280.055962 
L 236.097072 279.705405 
L 243.439982 278.603657 
L 247.111438 277.551987 
L 247.845729 277.101272 
L 250.782893 276.3 
L 252.251475 275.448649 
L 252.985766 274.947854 
L 253.720057 274.847695 
L 254.454348 274.597297 
L 256.657221 274.196661 
L 257.391512 273.846105 
L 258.860094 273.595707 
L 259.594385 273.195072 
L 261.062967 272.744356 
L 261.797258 272.644197 
L 263.265841 272.243561 
L 264.734423 271.893005 
L 265.468714 271.792846 
L 266.937296 271.191892 
L 267.671587 271.041653 
L 268.405878 270.741176 
L 269.140169 270.641017 
L 269.87446 270.290461 
L 270.608751 270.090143 
L 272.077333 269.989984 
L 273.545915 269.489189 
L 275.014497 269.38903 
L 275.748788 269.038474 
L 278.685952 268.537679 
L 281.623117 268.287281 
L 282.357408 268.137043 
L 283.82599 267.43593 
L 291.903191 264.080604 
L 292.637482 263.679968 
L 293.371773 262.878696 
L 294.106064 261.676789 
L 294.840355 260.725278 
L 295.574646 260.52496 
L 296.308937 260.52496 
L 297.777519 259.423211 
L 298.511811 259.222893 
L 299.246102 258.822258 
L 299.980393 258.672019 
L 300.714684 258.020986 
L 301.448975 257.820668 
L 303.651848 256.768998 
L 304.386139 255.867568 
L 305.12043 254.765819 
L 305.854721 254.315103 
L 306.589012 253.113196 
L 307.323303 252.362003 
L 308.057594 252.011447 
L 308.791885 251.811129 
L 310.260467 250.909698 
L 310.994758 250.559141 
L 313.931922 248.355644 
L 314.666213 247.303975 
L 315.400504 245.601272 
L 316.134795 244.499523 
L 316.869087 243.948649 
L 317.603378 243.648172 
L 320.540542 241.144197 
L 321.274833 240.643402 
L 322.743415 239.391415 
L 323.477706 238.339746 
L 324.946288 237.087758 
L 327.883452 235.184738 
L 328.617743 234.533704 
L 329.352034 234.383466 
L 331.554907 233.231638 
L 333.023489 232.380286 
L 333.75778 232.079809 
L 335.226363 230.727663 
L 335.960654 229.876312 
L 337.429236 228.874722 
L 338.163527 228.674404 
L 338.897818 228.323847 
L 339.632109 227.772973 
L 341.100691 226.971701 
L 341.834982 226.871542 
L 343.303564 226.07027 
L 344.037855 225.669634 
L 344.772146 224.918442 
L 345.506437 224.467727 
L 346.240728 224.217329 
L 346.975019 223.716534 
L 349.912183 222.214149 
L 350.646474 221.563116 
L 353.583639 220.561526 
L 354.31793 220.060731 
L 355.052221 219.910493 
L 356.520803 219.409698 
L 358.723676 218.558347 
L 360.926549 217.757075 
L 362.395131 217.506677 
L 363.863713 216.25469 
L 365.332295 215.553577 
L 367.535168 214.30159 
L 369.00375 213.900954 
L 369.738041 213.450238 
L 370.472332 213.249921 
L 372.675206 211.847695 
L 376.346661 210.996343 
L 378.549534 209.744356 
L 379.283825 209.644197 
L 380.018116 209.3938 
L 381.486698 209.093323 
L 383.689571 207.490779 
L 385.892444 206.989984 
L 386.626735 206.739587 
L 387.361026 206.188712 
L 391.766773 204.786486 
L 392.501064 204.736407 
L 397.641101 202.933545 
L 398.375392 202.582989 
L 400.578265 202.082194 
L 402.046847 201.731638 
L 402.781138 201.381081 
L 403.515429 201.230843 
L 405.718302 200.229253 
L 407.921176 199.177583 
L 408.655467 198.676789 
L 409.389758 198.476471 
L 411.592631 197.324642 
L 413.061213 196.974086 
L 414.529795 196.222893 
L 415.998377 195.822258 
L 416.732668 195.722099 
L 417.466959 195.221304 
L 418.20125 194.870747 
L 418.935541 194.720509 
L 420.404123 194.119555 
L 421.138414 193.969316 
L 421.872705 193.56868 
L 424.80987 193.117965 
L 426.278452 192.416852 
L 427.012743 191.815898 
L 427.747034 190.563911 
L 429.215616 190.263434 
L 429.949907 190.113196 
L 432.887071 188.610811 
L 433.621362 188.460572 
L 439.49569 185.656121 
L 441.698563 185.205405 
L 443.167146 184.504293 
L 443.901437 184.203816 
L 444.635728 184.103657 
L 447.572892 182.80159 
L 449.041474 181.8 
L 449.775765 181.449444 
L 450.510056 181.349285 
L 451.244347 181.098887 
L 451.978638 181.048808 
L 454.915802 180.097297 
L 455.650093 180.047218 
L 456.384384 179.496343 
L 457.852966 178.995548 
L 460.055839 178.294436 
L 460.79013 177.84372 
L 461.524422 177.643402 
L 462.258713 177.142607 
L 462.993004 176.84213 
L 463.727295 176.391415 
L 465.195877 175.840541 
L 467.39875 175.139428 
L 468.133041 174.788871 
L 468.867332 174.237997 
L 469.601623 173.486804 
L 470.335914 173.036089 
L 471.070205 172.885851 
L 472.538787 171.784102 
L 473.273078 171.633863 
L 474.007369 170.532114 
L 474.74166 170.231638 
L 475.475951 169.680763 
L 476.210242 169.580604 
L 476.944533 169.079809 
L 477.678824 168.729253 
L 478.413115 168.579014 
L 479.147407 168.278537 
L 479.881698 167.677583 
L 480.615989 167.427186 
L 482.818862 165.974881 
L 485.756026 164.522576 
L 486.490317 164.422417 
L 487.958899 163.771383 
L 488.69319 163.320668 
L 489.427481 162.11876 
L 490.161772 161.467727 
L 490.896063 161.067091 
L 491.630354 160.916852 
L 493.098936 160.015421 
L 493.833227 159.865183 
L 495.301809 159.16407 
L 497.504683 158.262639 
L 498.973265 157.261049 
L 500.441847 155.708585 
L 501.910429 154.807154 
L 502.64472 154.356439 
L 503.379011 153.605246 
L 504.113302 153.104452 
L 505.581884 151.902544 
L 506.316175 151.551987 
L 507.050466 150.750715 
L 507.784757 150.199841 
L 509.253339 149.699046 
L 509.98763 148.997933 
L 511.456212 148.246741 
L 512.190503 148.046423 
L 512.924794 147.495548 
L 513.659085 147.295231 
L 515.861959 146.143402 
L 516.59625 145.592528 
L 518.064832 144.991574 
L 518.799123 144.841335 
L 519.533414 144.39062 
L 524.673451 142.587758 
L 525.407742 141.936725 
L 527.610615 141.135453 
L 529.079197 140.684738 
L 529.813488 140.133863 
L 532.016361 139.132273 
L 532.750652 138.581399 
L 533.484944 138.180763 
L 534.953526 135.326232 
L 536.422108 133.623529 
L 537.156399 133.122734 
L 539.359272 132.171224 
L 540.093563 131.920827 
L 540.827854 131.820668 
L 541.562145 131.420032 
L 543.765018 130.718919 
L 545.967891 129.867568 
L 547.436473 128.916057 
L 549.639346 127.914467 
L 553.310802 125.811129 
L 554.045093 125.059936 
L 555.513675 124.258665 
L 556.247966 123.858029 
L 556.982257 123.607631 
L 557.716548 123.106836 
L 559.18513 122.405723 
L 559.919421 121.955008 
L 560.653712 121.654531 
L 561.388003 121.203816 
L 562.122294 121.003498 
L 562.856585 120.452623 
L 563.590876 120.152146 
L 564.325167 120.001908 
L 565.793749 119.400954 
L 567.996622 118.599682 
L 568.730913 118.048808 
L 570.199496 117.648172 
L 571.668078 117.097297 
L 572.402369 116.496343 
L 573.870951 116.045628 
L 574.605242 115.695072 
L 575.339533 115.494754 
L 576.808115 114.493164 
L 578.276697 113.84213 
L 579.745279 112.740382 
L 581.213861 112.239587 
L 581.948152 111.588553 
L 582.682443 111.438315 
L 583.416734 110.787281 
L 584.885316 109.93593 
L 586.353898 109.334976 
L 587.088189 108.583784 
L 591.493936 106.98124 
L 593.696809 106.02973 
L 595.899682 105.378696 
L 597.368264 105.178378 
L 598.102555 104.877901 
L 598.836846 104.727663 
L 600.305428 104.126709 
L 601.039719 104.07663 
L 603.976883 103.02496 
L 606.179757 101.522576 
L 610.585503 99.369157 
L 612.788376 97.916852 
L 614.256958 97.566296 
L 615.72554 96.564706 
L 618.662704 95.663275 
L 619.396995 95.362798 
L 620.865577 95.012242 
L 624.537033 93.810334 
L 626.739906 93.409698 
L 627.474197 93.20938 
L 628.208488 92.858824 
L 628.942779 92.758665 
L 630.411361 92.157711 
L 631.145652 92.057552 
L 631.879943 91.706995 
L 633.348525 91.406518 
L 634.082816 91.055962 
L 636.285689 90.555167 
L 637.754271 90.25469 
L 647.300055 88.201431 
L 648.034346 88.001113 
L 648.768637 87.600477 
L 652.440092 86.699046 
L 653.174383 86.548808 
L 656.111547 85.447059 
L 656.845838 85.196661 
L 657.580129 85.096502 
L 659.783003 84.34531 
L 660.517294 84.34531 
L 661.985876 83.844515 
L 662.720167 83.143402 
L 663.454458 82.792846 
L 664.92304 82.34213 
L 667.860204 81.240382 
L 668.594495 81.090143 
L 669.328786 80.639428 
L 670.063077 80.489189 
L 670.797368 79.988394 
L 674.468823 78.886645 
L 675.203114 78.43593 
L 675.937405 78.235612 
L 676.671696 77.634658 
L 678.87457 77.234022 
L 680.343152 76.43275 
L 681.077443 75.631479 
L 682.546025 75.331002 
L 686.951771 74.329412 
L 688.420353 73.928776 
L 689.888935 73.878696 
L 690.623226 73.52814 
L 693.56039 73.027345 
L 694.294681 72.676789 
L 696.497555 72.376312 
L 697.966137 71.825437 
L 698.700428 71.474881 
L 699.434719 71.424801 
L 701.637592 70.924006 
L 703.840465 70.373132 
L 706.777629 69.471701 
L 707.51192 69.321463 
L 708.246211 68.970906 
L 708.980502 68.870747 
L 709.714793 68.62035 
L 710.449084 68.169634 
L 712.651957 67.368362 
L 713.386248 66.817488 
L 714.854831 66.416852 
L 715.589122 66.116375 
L 717.057704 65.715739 
L 719.994868 64.363593 
L 722.197741 64.213355 
L 725.134905 63.311924 
L 725.869196 62.811129 
L 727.337778 62.360413 
L 731.009233 60.70779 
L 731.743525 60.607631 
L 733.212107 60.056757 
L 733.946398 59.7062 
L 734.680689 59.555962 
L 735.41498 59.205405 
L 736.883562 58.804769 
L 737.617853 58.454213 
L 743.492181 56.901749 
L 744.960763 56.200636 
L 747.163636 55.8 
L 747.163636 55.8 
" clip-path="url(#p09c0b2cd5d)" style="fill: none; stroke: #1f77b4; stroke-width: 1.5; stroke-linecap: square"/>
   </g>
   <g id="line2d_40">
    <path d="M 139.170655 307.8 
L 141.373528 307.699841 
L 142.84211 307.599682 
L 147.982147 307.499523 
L 151.653602 307.349285 
L 154.590767 307.349285 
L 155.325058 307.148967 
L 157.527931 307.098887 
L 161.933677 306.598092 
L 172.948043 305.947059 
L 178.822371 305.8469 
L 182.493826 305.696661 
L 191.305319 305.596502 
L 194.976774 305.446264 
L 199.38252 305.346105 
L 202.319684 305.245946 
L 208.928304 305.145787 
L 211.131177 305.095707 
L 213.33405 305.045628 
L 215.536923 304.795231 
L 219.942669 304.745151 
L 221.411251 304.644992 
L 226.551289 304.544833 
L 234.62849 304.094118 
L 239.768527 303.993959 
L 241.237109 303.8938 
L 243.439982 303.793641 
L 247.845729 303.593323 
L 250.782893 303.543243 
L 252.985766 303.342925 
L 264.734423 302.641812 
L 267.671587 302.541653 
L 272.811624 302.291256 
L 275.014497 302.191097 
L 282.357408 301.790461 
L 290.434609 301.690302 
L 293.371773 301.389825 
L 294.840355 301.289666 
L 302.917557 300.738792 
L 303.651848 300.538474 
L 305.854721 300.338156 
L 307.323303 299.987599 
L 309.526176 299.93752 
L 311.729049 299.837361 
L 317.603378 299.086169 
L 321.274833 298.98601 
L 330.820616 298.234817 
L 335.226363 297.734022 
L 337.429236 297.683943 
L 338.897818 297.583784 
L 341.834982 297.483625 
L 343.303564 297.383466 
L 346.975019 297.032909 
L 347.70931 296.832591 
L 352.115056 296.632273 
L 355.786512 296.532114 
L 366.066586 295.931161 
L 367.535168 295.831002 
L 377.080952 295.280127 
L 382.220989 295.179968 
L 382.95528 295.02973 
L 388.829609 294.929571 
L 393.969646 294.679173 
L 402.046847 294.579014 
L 407.186885 294.328617 
L 413.061213 294.228458 
L 419.669832 293.877901 
L 424.075578 293.777742 
L 438.027108 292.926391 
L 443.901437 292.826232 
L 447.572892 292.475676 
L 449.041474 292.325437 
L 452.712929 292.275358 
L 455.650093 291.974881 
L 462.993004 291.574245 
L 467.39875 291.474086 
L 469.601623 291.424006 
L 471.804496 291.373927 
L 474.007369 291.173609 
L 479.881698 291.07345 
L 481.35028 290.823052 
L 482.818862 290.722893 
L 485.756026 290.622734 
L 487.958899 290.522576 
L 489.427481 290.422417 
L 496.0361 290.322258 
L 497.504683 290.172019 
L 500.441847 290.07186 
L 501.176138 289.921622 
L 502.64472 289.871542 
L 503.379011 289.721304 
L 505.581884 289.621145 
L 518.064832 288.869952 
L 520.267705 288.769793 
L 523.93916 288.619555 
L 534.219235 288.519396 
L 539.359272 288.268998 
L 545.2336 288.168839 
L 548.170764 288.06868 
L 551.107929 288.018601 
L 552.576511 287.868362 
L 555.513675 287.768203 
L 562.856585 287.367568 
L 567.262331 287.317488 
L 569.465205 287.11717 
L 571.668078 287.067091 
L 576.808115 286.966932 
L 579.745279 286.866773 
L 588.556772 286.766614 
L 592.228227 286.616375 
L 596.633973 286.516216 
L 598.836846 286.265819 
L 603.242592 286.215739 
L 603.976883 286.065501 
L 605.445466 285.965342 
L 608.38263 285.865183 
L 617.194122 285.765024 
L 620.865577 285.614785 
L 633.348525 285.564706 
L 634.817107 285.464547 
L 637.01998 285.414467 
L 646.565764 285.314308 
L 648.034346 285.214149 
L 656.111547 285.11399 
L 659.048711 285.013831 
L 667.860204 284.963752 
L 669.328786 284.863593 
L 680.343152 284.813514 
L 682.546025 284.613196 
L 695.028972 284.513037 
L 697.231846 284.462957 
L 716.323413 284.362798 
L 719.260577 284.262639 
L 728.80636 284.16248 
L 731.009233 284.112401 
L 733.212107 284.012242 
L 735.41498 283.962162 
L 740.555017 283.862003 
L 747.163636 283.511447 
L 747.163636 283.511447 
" clip-path="url(#p09c0b2cd5d)" style="fill: none; stroke: #ff7f0e; stroke-width: 1.5; stroke-linecap: square"/>
   </g>
   <g id="patch_3">
    <path d="M 108 320.4 
L 108 43.2 
" style="fill: none; stroke: #a9a9a9; stroke-width: 0.8; stroke-linejoin: miter; stroke-linecap: square"/>
   </g>
   <g id="patch_4">
    <path d="M 777.6 320.4 
L 777.6 43.2 
" style="fill: none"/>
   </g>
   <g id="patch_5">
    <path d="M 108 320.4 
L 777.6 320.4 
" style="fill: none; stroke: #a9a9a9; stroke-width: 0.8; stroke-linejoin: miter; stroke-linecap: square"/>
   </g>
   <g id="patch_6">
    <path d="M 108 43.2 
L 777.6 43.2 
" style="fill: none"/>
   </g>
   <g id="text_20">
    <!-- get_subscribe history -->
    <g style="fill: #a9a9a9" transform="translate(378.6075 37.2) scale(0.12 -0.12)">
     <defs>
      <path id="DejaVuSans-67" d="M 2906 1791 
Q 2906 2416 2648 2759 
Q 2391 3103 1925 3103 
Q 1463 3103 1205 2759 
Q 947 2416 947 1791 
Q 947 1169 1205 825 
Q 1463 481 1925 481 
Q 2391 481 2648 825 
Q 2906 1169 2906 1791 
z
M 3481 434 
Q 3481 -459 3084 -895 
Q 2688 -1331 1869 -1331 
Q 1566 -1331 1297 -1286 
Q 1028 -1241 775 -1147 
L 775 -588 
Q 1028 -725 1275 -790 
Q 1522 -856 1778 -856 
Q 2344 -856 2625 -561 
Q 2906 -266 2906 331 
L 2906 616 
Q 2728 306 2450 153 
Q 2172 0 1784 0 
Q 1141 0 747 490 
Q 353 981 353 1791 
Q 353 2603 747 3093 
Q 1141 3584 1784 3584 
Q 2172 3584 2450 3431 
Q 2728 3278 2906 2969 
L 2906 3500 
L 3481 3500 
L 3481 434 
z
" transform="scale(0.015625)"/>
      <path id="DejaVuSans-65" d="M 3597 1894 
L 3597 1613 
L 953 1613 
Q 991 1019 1311 708 
Q 1631 397 2203 397 
Q 2534 397 2845 478 
Q 3156 559 3463 722 
L 3463 178 
Q 3153 47 2828 -22 
Q 2503 -91 2169 -91 
Q 1331 -91 842 396 
Q 353 884 353 1716 
Q 353 2575 817 3079 
Q 1281 3584 2069 3584 
Q 2775 3584 3186 3129 
Q 3597 2675 3597 1894 
z
M 3022 2063 
Q 3016 2534 2758 2815 
Q 2500 3097 2075 3097 
Q 1594 3097 1305 2825 
Q 1016 2553 972 2059 
L 3022 2063 
z
" transform="scale(0.015625)"/>
      <path id="DejaVuSans-74" d="M 1172 4494 
L 1172 3500 
L 2356 3500 
L 2356 3053 
L 1172 3053 
L 1172 1153 
Q 1172 725 1289 603 
Q 1406 481 1766 481 
L 2356 481 
L 2356 0 
L 1766 0 
Q 1100 0 847 248 
Q 594 497 594 1153 
L 594 3053 
L 172 3053 
L 172 3500 
L 594 3500 
L 594 4494 
L 1172 4494 
z
" transform="scale(0.015625)"/>
      <path id="DejaVuSans-5f" d="M 3263 -1063 
L 3263 -1509 
L -63 -1509 
L -63 -1063 
L 3263 -1063 
z
" transform="scale(0.015625)"/>
      <path id="DejaVuSans-73" d="M 2834 3397 
L 2834 2853 
Q 2591 2978 2328 3040 
Q 2066 3103 1784 3103 
Q 1356 3103 1142 2972 
Q 928 2841 928 2578 
Q 928 2378 1081 2264 
Q 1234 2150 1697 2047 
L 1894 2003 
Q 2506 1872 2764 1633 
Q 3022 1394 3022 966 
Q 3022 478 2636 193 
Q 2250 -91 1575 -91 
Q 1294 -91 989 -36 
Q 684 19 347 128 
L 347 722 
Q 666 556 975 473 
Q 1284 391 1588 391 
Q 1994 391 2212 530 
Q 2431 669 2431 922 
Q 2431 1156 2273 1281 
Q 2116 1406 1581 1522 
L 1381 1569 
Q 847 1681 609 1914 
Q 372 2147 372 2553 
Q 372 3047 722 3315 
Q 1072 3584 1716 3584 
Q 2034 3584 2315 3537 
Q 2597 3491 2834 3397 
z
" transform="scale(0.015625)"/>
      <path id="DejaVuSans-75" d="M 544 1381 
L 544 3500 
L 1119 3500 
L 1119 1403 
Q 1119 906 1312 657 
Q 1506 409 1894 409 
Q 2359 409 2629 706 
Q 2900 1003 2900 1516 
L 2900 3500 
L 3475 3500 
L 3475 0 
L 2900 0 
L 2900 538 
Q 2691 219 2414 64 
Q 2138 -91 1772 -91 
Q 1169 -91 856 284 
Q 544 659 544 1381 
z
M 1991 3584 
L 1991 3584 
z
" transform="scale(0.015625)"/>
      <path id="DejaVuSans-62" d="M 3116 1747 
Q 3116 2381 2855 2742 
Q 2594 3103 2138 3103 
Q 1681 3103 1420 2742 
Q 1159 2381 1159 1747 
Q 1159 1113 1420 752 
Q 1681 391 2138 391 
Q 2594 391 2855 752 
Q 3116 1113 3116 1747 
z
M 1159 2969 
Q 1341 3281 1617 3432 
Q 1894 3584 2278 3584 
Q 2916 3584 3314 3078 
Q 3713 2572 3713 1747 
Q 3713 922 3314 415 
Q 2916 -91 2278 -91 
Q 1894 -91 1617 61 
Q 1341 213 1159 525 
L 1159 0 
L 581 0 
L 581 4863 
L 1159 4863 
L 1159 2969 
z
" transform="scale(0.015625)"/>
      <path id="DejaVuSans-63" d="M 3122 3366 
L 3122 2828 
Q 2878 2963 2633 3030 
Q 2388 3097 2138 3097 
Q 1578 3097 1268 2742 
Q 959 2388 959 1747 
Q 959 1106 1268 751 
Q 1578 397 2138 397 
Q 2388 397 2633 464 
Q 2878 531 3122 666 
L 3122 134 
Q 2881 22 2623 -34 
Q 2366 -91 2075 -91 
Q 1284 -91 818 406 
Q 353 903 353 1747 
Q 353 2603 823 3093 
Q 1294 3584 2113 3584 
Q 2378 3584 2631 3529 
Q 2884 3475 3122 3366 
z
" transform="scale(0.015625)"/>
      <path id="DejaVuSans-72" d="M 2631 2963 
Q 2534 3019 2420 3045 
Q 2306 3072 2169 3072 
Q 1681 3072 1420 2755 
Q 1159 2438 1159 1844 
L 1159 0 
L 581 0 
L 581 3500 
L 1159 3500 
L 1159 2956 
Q 1341 3275 1631 3429 
Q 1922 3584 2338 3584 
Q 2397 3584 2469 3576 
Q 2541 3569 2628 3553 
L 2631 2963 
z
" transform="scale(0.015625)"/>
      <path id="DejaVuSans-69" d="M 603 3500 
L 1178 3500 
L 1178 0 
L 603 0 
L 603 3500 
z
M 603 4863 
L 1178 4863 
L 1178 4134 
L 603 4134 
L 603 4863 
z
" transform="scale(0.015625)"/>
      <path id="DejaVuSans-20" transform="scale(0.015625)"/>
      <path id="DejaVuSans-68" d="M 3513 2113 
L 3513 0 
L 2938 0 
L 2938 2094 
Q 2938 2591 2744 2837 
Q 2550 3084 2163 3084 
Q 1697 3084 1428 2787 
Q 1159 2491 1159 1978 
L 1159 0 
L 581 0 
L 581 4863 
L 1159 4863 
L 1159 2956 
Q 1366 3272 1645 3428 
Q 1925 3584 2291 3584 
Q 2894 3584 3203 3211 
Q 3513 2838 3513 2113 
z
" transform="scale(0.015625)"/>
      <path id="DejaVuSans-6f" d="M 1959 3097 
Q 1497 3097 1228 2736 
Q 959 2375 959 1747 
Q 959 1119 1226 758 
Q 1494 397 1959 397 
Q 2419 397 2687 759 
Q 2956 1122 2956 1747 
Q 2956 2369 2687 2733 
Q 2419 3097 1959 3097 
z
M 1959 3584 
Q 2709 3584 3137 3096 
Q 3566 2609 3566 1747 
Q 3566 888 3137 398 
Q 2709 -91 1959 -91 
Q 1206 -91 779 398 
Q 353 888 353 1747 
Q 353 2609 779 3096 
Q 1206 3584 1959 3584 
z
" transform="scale(0.015625)"/>
      <path id="DejaVuSans-79" d="M 2059 -325 
Q 1816 -950 1584 -1140 
Q 1353 -1331 966 -1331 
L 506 -1331 
L 506 -850 
L 844 -850 
Q 1081 -850 1212 -737 
Q 1344 -625 1503 -206 
L 1606 56 
L 191 3500 
L 800 3500 
L 1894 763 
L 2988 3500 
L 3597 3500 
L 2059 -325 
z
" transform="scale(0.015625)"/>
     </defs>
     <use xlink:href="#DejaVuSans-67"/>
     <use xlink:href="#DejaVuSans-65" x="63.476562"/>
     <use xlink:href="#DejaVuSans-74" x="125"/>
     <use xlink:href="#DejaVuSans-5f" x="164.208984"/>
     <use xlink:href="#DejaVuSans-73" x="214.208984"/>
     <use xlink:href="#DejaVuSans-75" x="266.308594"/>
     <use xlink:href="#DejaVuSans-62" x="329.6875"/>
     <use xlink:href="#DejaVuSans-73" x="393.164062"/>
     <use xlink:href="#DejaVuSans-63" x="445.263672"/>
     <use xlink:href="#DejaVuSans-72" x="500.244141"/>
     <use xlink:href="#DejaVuSans-69" x="541.357422"/>
     <use xlink:href="#DejaVuSans-62" x="569.140625"/>
     <use xlink:href="#DejaVuSans-65" x="632.617188"/>
     <use xlink:href="#DejaVuSans-20" x="694.140625"/>
     <use xlink:href="#DejaVuSans-68" x="725.927734"/>
     <use xlink:href="#DejaVuSans-69" x="789.306641"/>
     <use xlink:href="#DejaVuSans-73" x="817.089844"/>
     <use xlink:href="#DejaVuSans-74" x="869.189453"/>
     <use xlink:href="#DejaVuSans-6f" x="908.398438"/>
     <use xlink:href="#DejaVuSans-72" x="969.580078"/>
     <use xlink:href="#DejaVuSans-79" x="1010.693359"/>
    </g>
   </g>
   <g id="legend_1">
    <g id="line2d_41">
     <path d="M 815.08 328.498438 
L 825.08 328.498438 
L 835.08 328.498438 
" style="fill: none; stroke: #1f77b4; stroke-width: 1.5; stroke-linecap: square"/>
    </g>
    <g id="text_21">
     <!-- star -->
     <g style="fill: #a9a9a9" transform="translate(843.08 331.998438) scale(0.1 -0.1)">
      <defs>
       <path id="DejaVuSans-61" d="M 2194 1759 
Q 1497 1759 1228 1600 
Q 959 1441 959 1056 
Q 959 750 1161 570 
Q 1363 391 1709 391 
Q 2188 391 2477 730 
Q 2766 1069 2766 1631 
L 2766 1759 
L 2194 1759 
z
M 3341 1997 
L 3341 0 
L 2766 0 
L 2766 531 
Q 2569 213 2275 61 
Q 1981 -91 1556 -91 
Q 1019 -91 701 211 
Q 384 513 384 1019 
Q 384 1609 779 1909 
Q 1175 2209 1959 2209 
L 2766 2209 
L 2766 2266 
Q 2766 2663 2505 2880 
Q 2244 3097 1772 3097 
Q 1472 3097 1187 3025 
Q 903 2953 641 2809 
L 641 3341 
Q 956 3463 1253 3523 
Q 1550 3584 1831 3584 
Q 2591 3584 2966 3190 
Q 3341 2797 3341 1997 
z
" transform="scale(0.015625)"/>
      </defs>
      <use xlink:href="#DejaVuSans-73"/>
      <use xlink:href="#DejaVuSans-74" x="52.099609"/>
      <use xlink:href="#DejaVuSans-61" x="91.308594"/>
      <use xlink:href="#DejaVuSans-72" x="152.587891"/>
     </g>
    </g>
    <g id="line2d_42">
     <path d="M 815.08 343.176562 
L 825.08 343.176562 
L 835.08 343.176562 
" style="fill: none; stroke: #ff7f0e; stroke-width: 1.5; stroke-linecap: square"/>
    </g>
    <g id="text_22">
     <!-- fork -->
     <g style="fill: #a9a9a9" transform="translate(843.08 346.676562) scale(0.1 -0.1)">
      <defs>
       <path id="DejaVuSans-66" d="M 2375 4863 
L 2375 4384 
L 1825 4384 
Q 1516 4384 1395 4259 
Q 1275 4134 1275 3809 
L 1275 3500 
L 2222 3500 
L 2222 3053 
L 1275 3053 
L 1275 0 
L 697 0 
L 697 3053 
L 147 3053 
L 147 3500 
L 697 3500 
L 697 3744 
Q 697 4328 969 4595 
Q 1241 4863 1831 4863 
L 2375 4863 
z
" transform="scale(0.015625)"/>
       <path id="DejaVuSans-6b" d="M 581 4863 
L 1159 4863 
L 1159 1991 
L 2875 3500 
L 3609 3500 
L 1753 1863 
L 3688 0 
L 2938 0 
L 1159 1709 
L 1159 0 
L 581 0 
L 581 4863 
z
" transform="scale(0.015625)"/>
      </defs>
      <use xlink:href="#DejaVuSans-66"/>
      <use xlink:href="#DejaVuSans-6f" x="35.205078"/>
      <use xlink:href="#DejaVuSans-72" x="96.386719"/>
      <use xlink:href="#DejaVuSans-6b" x="137.5"/>
     </g>
    </g>
   </g>
  </g>
 </g>
 <defs>
  <clipPath id="p09c0b2cd5d">
   <rect x="108" y="43.2" width="669.6" height="277.2"/>
  </clipPath>
 </defs>
</svg>
